<svg version="1.1" viewBox="0.0 0.0 336.53543307086613 249.1548556430446" fill="none" stroke="none" stroke-linecap="square" stroke-miterlimit="10" xmlns:xlink="http://www.w3.org/1999/xlink" xmlns="http://www.w3.org/2000/svg"><clipPath id="p.0"><path d="m0 0l336.53543 0l0 249.15486l-336.53543 0l0 -249.15486z" clip-rule="nonzero"/></clipPath><g clip-path="url(#p.0)"><path fill="#000000" fill-opacity="0.0" d="m0 0l336.53543 0l0 249.15486l-336.53543 0z" fill-rule="evenodd"/><path fill="#000000" d="m24.036745 83.5538l252.8819 0l0 138.86615l-252.8819 0z" fill-rule="evenodd"/><path stroke="#ffffff" stroke-width="1.0" stroke-linejoin="round" stroke-linecap="butt" d="m24.036745 83.5538l252.8819 0l0 138.86615l-252.8819 0z" fill-rule="evenodd"/><path fill="#000000" d="m88.414696 50.540684l124.125984 0l0 79.086624l-124.125984 0z" fill-rule="evenodd"/><path stroke="#000000" stroke-width="1.0" stroke-linejoin="round" stroke-linecap="butt" d="m88.414696 50.540684l124.125984 0l0 79.086624l-124.125984 0z" fill-rule="evenodd"/><path fill="#000000" d="m80.12861 50.540684l70.14808 -14.80315l70.54483 14.80315z" fill-rule="evenodd"/><path stroke="#000000" stroke-width="1.0" stroke-linejoin="round" stroke-linecap="butt" d="m80.12861 50.540684l70.14808 -14.80315l70.54483 14.80315z" fill-rule="evenodd"/><path fill="#000000" d="m10.244095 32.95253l29.417324 -22.07064l29.417324 22.07064l-14.708664 0l0 57.015976l-29.417324 0l0 -57.015976z" fill-rule="evenodd"/><path stroke="#000000" stroke-width="1.0" stroke-linejoin="round" stroke-linecap="butt" d="m10.244095 32.95253l29.417324 -22.07064l29.417324 22.07064l-14.708664 0l0 57.015976l-29.417324 0l0 -57.015976z" fill-rule="evenodd"/><path fill="#000000" d="m231.87138 33.89977l29.417343 -23.01788l29.417297 23.01788l-14.708649 0l0 61.9585l-29.417328 0l0 -61.9585z" fill-rule="evenodd"/><path stroke="#000000" stroke-width="1.0" stroke-linejoin="round" stroke-linecap="butt" d="m231.87138 33.89977l29.417343 -23.01788l29.417297 23.01788l-14.708649 0l0 61.9585l-29.417328 0l0 -61.9585z" fill-rule="evenodd"/><path fill="#000000" d="m113.23097 222.41995l0 -45.05513l0 0c0 -24.883255 16.674744 -45.055115 37.244095 -45.055115c20.569351 0 37.244095 20.17186 37.244095 45.055115l0 45.05513z" fill-rule="evenodd"/><path stroke="#ffffff" stroke-width="1.0" stroke-linejoin="round" stroke-linecap="butt" d="m113.23097 222.41995l0 -45.05513l0 0c0 -24.883255 16.674744 -45.055115 37.244095 -45.055115c20.569351 0 37.244095 20.17186 37.244095 45.055115l0 45.05513z" fill-rule="evenodd"/><path fill="#000000" fill-opacity="0.0" d="m150.47507 132.30971l0 90.110245" fill-rule="evenodd"/><path stroke="#ffffff" stroke-width="1.0" stroke-linejoin="round" stroke-linecap="butt" d="m150.47507 132.30971l0 90.110245" fill-rule="evenodd"/><path fill="#ffffff" d="m33.89795 50.76906l4.9524727 0l0 -11.016846l1.6219902 0l0 11.016846l4.9524727 0l0 1.6219902l-4.9524727 0l0 11.016842l-1.6219902 0l0 -11.016842l-4.9524727 0z" fill-rule="evenodd"/><path stroke="#000000" stroke-width="1.0" stroke-linejoin="round" stroke-linecap="butt" d="m33.89795 50.76906l4.9524727 0l0 -11.016846l1.6219902 0l0 11.016846l4.9524727 0l0 1.6219902l-4.9524727 0l0 11.016842l-1.6219902 0l0 -11.016842l-4.9524727 0z" fill-rule="evenodd"/><path fill="#ffffff" d="m255.52525 52.63406l5.0274506 0l0 -11.09182l1.4720154 0l0 11.09182l5.027466 0l0 1.4720383l-5.027466 0l0 11.091824l-1.4720154 0l0 -11.091824l-5.0274506 0z" fill-rule="evenodd"/><path stroke="#000000" stroke-width="1.0" stroke-linejoin="round" stroke-linecap="butt" d="m255.52525 52.63406l5.0274506 0l0 -11.09182l1.4720154 0l0 11.09182l5.027466 0l0 1.4720383l-5.027466 0l0 11.091824l-1.4720154 0l0 -11.091824l-5.0274506 0z" fill-rule="evenodd"/><path fill="#ffffff" d="m97.89795 66.84403l5.0274506 0l0 -11.09182l1.4720383 0l0 11.09182l5.0274506 0l0 1.4720383l-5.0274506 0l0 11.09182l-1.4720383 0l0 -11.09182l-5.0274506 0z" fill-rule="evenodd"/><path stroke="#000000" stroke-width="1.0" stroke-linejoin="round" stroke-linecap="butt" d="m97.89795 66.84403l5.0274506 0l0 -11.09182l1.4720383 0l0 11.09182l5.0274506 0l0 1.4720383l-5.0274506 0l0 11.09182l-1.4720383 0l0 -11.09182l-5.0274506 0z" fill-rule="evenodd"/><path fill="#ffffff" d="m145.89795 66.84403l5.0274506 0l0 -11.09182l1.4720306 0l0 11.09182l5.0274506 0l0 1.4720383l-5.0274506 0l0 11.09182l-1.4720306 0l0 -11.09182l-5.0274506 0z" fill-rule="evenodd"/><path stroke="#000000" stroke-width="1.0" stroke-linejoin="round" stroke-linecap="butt" d="m145.89795 66.84403l5.0274506 0l0 -11.09182l1.4720306 0l0 11.09182l5.0274506 0l0 1.4720383l-5.0274506 0l0 11.09182l-1.4720306 0l0 -11.09182l-5.0274506 0z" fill-rule="evenodd"/><path fill="#ffffff" d="m193.89795 66.84403l5.0274506 0l0 -11.09182l1.4720306 0l0 11.09182l5.0274506 0l0 1.4720383l-5.0274506 0l0 11.09182l-1.4720306 0l0 -11.09182l-5.0274506 0z" fill-rule="evenodd"/><path stroke="#000000" stroke-width="1.0" stroke-linejoin="round" stroke-linecap="butt" d="m193.89795 66.84403l5.0274506 0l0 -11.09182l1.4720306 0l0 11.09182l5.0274506 0l0 1.4720383l-5.0274506 0l0 11.09182l-1.4720306 0l0 -11.09182l-5.0274506 0z" fill-rule="evenodd"/></g></svg>