<svg version="1.1" viewBox="0.0 0.0 331.9501312335958 284.1391076115486" fill="none" stroke="none" stroke-linecap="square" stroke-miterlimit="10" xmlns:xlink="http://www.w3.org/1999/xlink" xmlns="http://www.w3.org/2000/svg"><clipPath id="p.0"><path d="m0 0l331.95013 0l0 284.1391l-331.95013 0l0 -284.1391z" clip-rule="nonzero"/></clipPath><g clip-path="url(#p.0)"><path fill="#000000" fill-opacity="0.0" d="m0 0l331.95013 0l0 284.1391l-331.95013 0z" fill-rule="evenodd"/><path fill="#000000" d="m17.650919 229.02887l0 0c0 -19.551743 68.546265 -35.401566 153.10236 -35.401566l0 0c84.55611 0 153.10237 15.849823 153.10237 35.401566l0 0c0 19.551758 -68.546265 35.40158 -153.10237 35.40158l0 0c-84.5561 0 -153.10236 -15.849823 -153.10236 -35.40158z" fill-rule="evenodd"/><path stroke="#000000" stroke-width="1.0" stroke-linejoin="round" stroke-linecap="butt" d="m17.650919 229.02887l0 0c0 -19.551743 68.546265 -35.401566 153.10236 -35.401566l0 0c84.55611 0 153.10237 15.849823 153.10237 35.401566l0 0c0 19.551758 -68.546265 35.40158 -153.10237 35.40158l0 0c-84.5561 0 -153.10236 -15.849823 -153.10236 -35.40158z" fill-rule="evenodd"/><path fill="#000000" d="m150.06561 15.230971l91.93701 0l0 188.50394l-91.93701 0z" fill-rule="evenodd"/><path stroke="#ffffff" stroke-width="1.0" stroke-linejoin="round" stroke-linecap="butt" d="m150.06561 15.230971l91.93701 0l0 188.50394l-91.93701 0z" fill-rule="evenodd"/><path fill="#000000" d="m93.968506 81.87139l67.1181 0l0 147.1181l-67.1181 0z" fill-rule="evenodd"/><path stroke="#ffffff" stroke-width="1.0" stroke-linejoin="round" stroke-linecap="butt" d="m93.968506 81.87139l67.1181 0l0 147.1181l-67.1181 0z" fill-rule="evenodd"/><path fill="#000000" d="m41.559055 151.30446l60.692913 0l0 90.110245l-60.692913 0z" fill-rule="evenodd"/><path stroke="#ffffff" stroke-width="1.0" stroke-linejoin="round" stroke-linecap="butt" d="m41.559055 151.30446l60.692913 0l0 90.110245l-60.692913 0z" fill-rule="evenodd"/><path fill="#000000" d="m61.795277 110.94751l20.22047 0l0 45.07086l-20.22047 0z" fill-rule="evenodd"/><path stroke="#000000" stroke-width="1.0" stroke-linejoin="round" stroke-linecap="butt" d="m61.795277 110.94751l20.22047 0l0 45.07086l-20.22047 0z" fill-rule="evenodd"/><path fill="#000000" d="m57.65354 114.2336l14.251968 -36.7874l14.251968 36.7874z" fill-rule="evenodd"/><path stroke="#000000" stroke-width="1.0" stroke-linejoin="round" stroke-linecap="butt" d="m57.65354 114.2336l14.251968 -36.7874l14.251968 36.7874z" fill-rule="evenodd"/><path fill="#ffffff" d="m63.165356 142.09973l0 -13.259842l0 0c0 -7.323204 3.9130974 -13.259834 8.740154 -13.259834c4.827057 0 8.740158 5.9366302 8.740158 13.259834l0 13.259842z" fill-rule="evenodd"/><path stroke="#000000" stroke-width="1.0" stroke-linejoin="round" stroke-linecap="butt" d="m63.165356 142.09973l0 -13.259842l0 0c0 -7.323204 3.9130974 -13.259834 8.740154 -13.259834c4.827057 0 8.740158 5.9366302 8.740158 13.259834l0 13.259842z" fill-rule="evenodd"/><path fill="#000000" d="m71.90551 118.41207l5.687668 2.5726166l0 10.290459c0 1.4208221 -2.5464554 2.5726166 -5.687668 2.5726166c-3.1412048 0 -5.68766 -1.1517944 -5.68766 -2.5726166l0 -10.290459z" fill-rule="evenodd"/><path stroke="#000000" stroke-width="1.0" stroke-linejoin="round" stroke-linecap="butt" d="m71.90551 118.41207l5.687668 2.5726166l0 10.290459c0 1.4208221 -2.5464554 2.5726166 -5.687668 2.5726166c-3.1412048 0 -5.68766 -1.1517944 -5.68766 -2.5726166l0 -10.290459z" fill-rule="evenodd"/><path fill="#000000" d="m70.44095 111.59843l2.9291306 0l0 9.007874l-2.9291306 0z" fill-rule="evenodd"/><path stroke="#000000" stroke-width="1.0" stroke-linejoin="round" stroke-linecap="butt" d="m70.44095 111.59843l2.9291306 0l0 9.007874l-2.9291306 0z" fill-rule="evenodd"/><path fill="#000000" d="m62.25197 241.4147l0 -12.37796l0 0c0 -6.836151 4.3220367 -12.377945 9.653542 -12.377945c5.331505 0 9.653542 5.541794 9.653542 12.377945l0 12.37796z" fill-rule="evenodd"/><path stroke="#ffffff" stroke-width="1.0" stroke-linejoin="round" stroke-linecap="butt" d="m62.25197 241.4147l0 -12.37796l0 0c0 -6.836151 4.3220367 -12.377945 9.653542 -12.377945c5.331505 0 9.653542 5.541794 9.653542 12.377945l0 12.37796z" fill-rule="evenodd"/><path fill="#000000" fill-opacity="0.0" d="m72.0 216.6588l-0.09449005 24.755905" fill-rule="evenodd"/><path stroke="#ffffff" stroke-width="1.0" stroke-linejoin="round" stroke-linecap="butt" d="m72.0 216.6588l-0.09449005 24.755905" fill-rule="evenodd"/><path fill="#000000" d="m233.74803 93.32021l60.692917 0l0 124.22047l-60.692917 0z" fill-rule="evenodd"/><path stroke="#f3f3f3" stroke-width="1.0" stroke-linejoin="round" stroke-linecap="butt" d="m233.74803 93.32021l60.692917 0l0 124.22047l-60.692917 0z" fill-rule="evenodd"/><path fill="#000000" d="m117.41601 196.80052l20.220482 0l0 32.18898l-20.220482 0z" fill-rule="evenodd"/><path stroke="#ffffff" stroke-width="1.0" stroke-linejoin="round" stroke-linecap="butt" d="m117.41601 196.80052l20.220482 0l0 32.18898l-20.220482 0z" fill-rule="evenodd"/><path fill="#000000" d="m185.69948 171.54593l20.220474 0l0 32.18898l-20.220474 0z" fill-rule="evenodd"/><path stroke="#ffffff" stroke-width="1.0" stroke-linejoin="round" stroke-linecap="butt" d="m185.69948 171.54593l20.220474 0l0 32.18898l-20.220474 0z" fill-rule="evenodd"/><path fill="#000000" d="m253.98294 184.46982l20.220459 0l0 32.18898l-20.220459 0z" fill-rule="evenodd"/><path stroke="#ffffff" stroke-width="1.0" stroke-linejoin="round" stroke-linecap="butt" d="m253.98294 184.46982l20.220459 0l0 32.18898l-20.220459 0z" fill-rule="evenodd"/></g></svg>