<svg version="1.1" viewBox="0.0 0.0 214.92125984251967 196.98162729658793" fill="none" stroke="none" stroke-linecap="square" stroke-miterlimit="10" xmlns:xlink="http://www.w3.org/1999/xlink" xmlns="http://www.w3.org/2000/svg"><clipPath id="p.0"><path d="m0 0l214.92126 0l0 196.98163l-214.92126 0l0 -196.98163z" clip-rule="nonzero"/></clipPath><g clip-path="url(#p.0)"><path fill="#000000" fill-opacity="0.0" d="m0 0l214.92126 0l0 196.98163l-214.92126 0z" fill-rule="evenodd"/><path fill="#000000" d="m13.755905 54.278214l175.62206 0l0 128.72441l-175.62206 0z" fill-rule="evenodd"/><path stroke="#000000" stroke-width="1.0" stroke-linejoin="round" stroke-linecap="butt" d="m13.755905 54.278214l175.62206 0l0 128.72441l-175.62206 0z" fill-rule="evenodd"/><path fill="#000000" d="m13.755905 54.278214l7.8110237 -21.165352l7.8110237 21.165352z" fill-rule="evenodd"/><path stroke="#000000" stroke-width="1.0" stroke-linejoin="round" stroke-linecap="butt" d="m13.755905 54.278214l7.8110237 -21.165352l7.8110237 21.165352z" fill-rule="evenodd"/><path fill="#000000" d="m29.755905 54.27034l7.8110237 -23.212597l7.8110237 23.212597z" fill-rule="evenodd"/><path stroke="#000000" stroke-width="1.0" stroke-linejoin="round" stroke-linecap="butt" d="m29.755905 54.27034l7.8110237 -23.212597l7.8110237 23.212597z" fill-rule="evenodd"/><path fill="#000000" d="m45.755905 54.278214l7.8110237 -21.165352l7.8110237 21.165352z" fill-rule="evenodd"/><path stroke="#000000" stroke-width="1.0" stroke-linejoin="round" stroke-linecap="butt" d="m45.755905 54.278214l7.8110237 -21.165352l7.8110237 21.165352z" fill-rule="evenodd"/><path fill="#000000" d="m61.755905 54.27034l7.8110275 -25.51181l7.81102 25.51181z" fill-rule="evenodd"/><path stroke="#000000" stroke-width="1.0" stroke-linejoin="round" stroke-linecap="butt" d="m61.755905 54.27034l7.8110275 -25.51181l7.81102 25.51181z" fill-rule="evenodd"/><path fill="#000000" d="m77.755905 54.278214l7.8110275 -21.165352l7.81102 21.165352z" fill-rule="evenodd"/><path stroke="#000000" stroke-width="1.0" stroke-linejoin="round" stroke-linecap="butt" d="m77.755905 54.278214l7.8110275 -21.165352l7.81102 21.165352z" fill-rule="evenodd"/><path fill="#000000" d="m93.755905 58.44357l7.8110275 -48.53543l7.81102 48.53543z" fill-rule="evenodd"/><path stroke="#000000" stroke-width="1.0" stroke-linejoin="round" stroke-linecap="butt" d="m93.755905 58.44357l7.8110275 -48.53543l7.81102 48.53543z" fill-rule="evenodd"/><path fill="#000000" d="m109.755905 54.278214l7.8110275 -21.165352l7.81102 21.165352z" fill-rule="evenodd"/><path stroke="#000000" stroke-width="1.0" stroke-linejoin="round" stroke-linecap="butt" d="m109.755905 54.278214l7.8110275 -21.165352l7.81102 21.165352z" fill-rule="evenodd"/><path fill="#000000" d="m125.755905 58.427822l7.81102 -29.669292l7.811035 29.669292z" fill-rule="evenodd"/><path stroke="#000000" stroke-width="1.0" stroke-linejoin="round" stroke-linecap="butt" d="m125.755905 58.427822l7.81102 -29.669292l7.811035 29.669292z" fill-rule="evenodd"/><path fill="#000000" d="m141.7559 53.965878l7.81102 -21.165352l7.811035 21.165352z" fill-rule="evenodd"/><path stroke="#000000" stroke-width="1.0" stroke-linejoin="round" stroke-linecap="butt" d="m141.7559 53.965878l7.81102 -21.165352l7.811035 21.165352z" fill-rule="evenodd"/><path fill="#000000" d="m157.7559 58.427822l7.81102 -27.370079l7.811035 27.370079z" fill-rule="evenodd"/><path stroke="#000000" stroke-width="1.0" stroke-linejoin="round" stroke-linecap="butt" d="m157.7559 58.427822l7.81102 -27.370079l7.811035 27.370079z" fill-rule="evenodd"/><path fill="#000000" d="m173.7559 53.965878l7.81102 -21.165352l7.811035 21.165352z" fill-rule="evenodd"/><path stroke="#000000" stroke-width="1.0" stroke-linejoin="round" stroke-linecap="butt" d="m173.7559 53.965878l7.81102 -21.165352l7.811035 21.165352z" fill-rule="evenodd"/><path fill="#000000" d="m81.33071 183.00262l0 -34.472443l0 0c0 -19.038605 9.060059 -34.472443 20.236221 -34.472443c11.176155 0 20.236214 15.433838 20.236214 34.472443l0 34.472443z" fill-rule="evenodd"/><path stroke="#ffffff" stroke-width="1.0" stroke-linejoin="round" stroke-linecap="butt" d="m81.33071 183.00262l0 -34.472443l0 0c0 -19.038605 9.060059 -34.472443 20.236221 -34.472443c11.176155 0 20.236214 15.433838 20.236214 34.472443l0 34.472443z" fill-rule="evenodd"/><path fill="#000000" fill-opacity="0.0" d="m101.91338 115.03412l-0.3464508 67.968506" fill-rule="evenodd"/><path stroke="#ffffff" stroke-width="1.0" stroke-linejoin="round" stroke-linecap="butt" d="m101.91338 115.03412l-0.3464508 67.968506" fill-rule="evenodd"/></g></svg>