<svg version="1.1" viewBox="0.0 0.0 256.29396325459317 116.498687664042" fill="none" stroke="none" stroke-linecap="square" stroke-miterlimit="10" xmlns:xlink="http://www.w3.org/1999/xlink" xmlns="http://www.w3.org/2000/svg"><clipPath id="p.0"><path d="m0 0l256.29398 0l0 116.49869l-256.29398 0l0 -116.49869z" clip-rule="nonzero"/></clipPath><g clip-path="url(#p.0)"><path fill="#000000" fill-opacity="0.0" d="m0 0l256.29398 0l0 116.49869l-256.29398 0z" fill-rule="evenodd"/><path fill="#000000" d="m6.8713913 84.79265l0 0c0 -14.724693 54.62126 -26.661415 121.99999 -26.661415l0 0c67.37875 0 122.0 11.936722 122.0 26.661415l0 0c0 14.724693 -54.621246 26.661423 -122.0 26.661423l0 0c-67.37873 0 -121.99999 -11.936729 -121.99999 -26.661423z" fill-rule="evenodd"/><path stroke="#000000" stroke-width="1.0" stroke-linejoin="round" stroke-linecap="butt" d="m6.8713913 84.79265l0 0c0 -14.724693 54.62126 -26.661415 121.99999 -26.661415l0 0c67.37875 0 122.0 11.936722 122.0 26.661415l0 0c0 14.724693 -54.621246 26.661423 -122.0 26.661423l0 0c-67.37873 0 -121.99999 -11.936729 -121.99999 -26.661423z" fill-rule="evenodd"/><path fill="#000000" d="m30.782152 31.467192l50.58268 0l0 53.32283l-50.58268 0z" fill-rule="evenodd"/><path stroke="#ffffff" stroke-width="1.0" stroke-linejoin="round" stroke-linecap="butt" d="m30.782152 31.467192l50.58268 0l0 53.32283l-50.58268 0z" fill-rule="evenodd"/><path fill="#000000" d="m93.03412 15.367455l50.582672 0l0 50.110237l-50.582672 0z" fill-rule="evenodd"/><path stroke="#ffffff" stroke-width="1.0" stroke-linejoin="round" stroke-linecap="butt" d="m93.03412 15.367455l50.582672 0l0 50.110237l-50.582672 0z" fill-rule="evenodd"/><path fill="#000000" d="m154.41911 45.811024l75.40158 0l0 43.212597l-75.40158 0z" fill-rule="evenodd"/><path stroke="#ffffff" stroke-width="1.0" stroke-linejoin="round" stroke-linecap="butt" d="m154.41911 45.811024l75.40158 0l0 43.212597l-75.40158 0z" fill-rule="evenodd"/><path fill="#000000" d="m29.412073 33.29659l0 -7.8110237l0 0c0 -4.3139095 11.936724 -7.8110237 26.661417 -7.8110237c14.724697 0 26.661419 3.4971142 26.661419 7.8110237l0 7.8110237z" fill-rule="evenodd"/><path stroke="#ffffff" stroke-width="1.0" stroke-linejoin="round" stroke-linecap="butt" d="m29.412073 33.29659l0 -7.8110237l0 0c0 -4.3139095 11.936724 -7.8110237 26.661417 -7.8110237c14.724697 0 26.661419 3.4971142 26.661419 7.8110237l0 7.8110237z" fill-rule="evenodd"/><path fill="#000000" d="m91.66404 15.367455l0 -4.818898l0 0c0 -2.6614037 11.936722 -4.8188977 26.661423 -4.8188977c14.724693 0 26.661415 2.157494 26.661415 4.8188977l0 4.818898z" fill-rule="evenodd"/><path stroke="#ffffff" stroke-width="1.0" stroke-linejoin="round" stroke-linecap="butt" d="m91.66404 15.367455l0 -4.818898l0 0c0 -2.6614037 11.936722 -4.8188977 26.661423 -4.8188977c14.724693 0 26.661415 2.157494 26.661415 4.8188977l0 4.818898z" fill-rule="evenodd"/><path fill="#000000" d="m150.73407 45.811024l0 -5.5118103l0 0c0 -3.0440903 18.529068 -5.5118103 41.385834 -5.5118103c22.856766 0 41.38582 2.46772 41.38582 5.5118103l0 5.5118103z" fill-rule="evenodd"/><path stroke="#ffffff" stroke-width="1.0" stroke-linejoin="round" stroke-linecap="butt" d="m150.73407 45.811024l0 -5.5118103l0 0c0 -3.0440903 18.529068 -5.5118103 41.385834 -5.5118103c22.856766 0 41.38582 2.46772 41.38582 5.5118103l0 5.5118103z" fill-rule="evenodd"/><path fill="#000000" d="m51.010498 65.47769l7.8110237 0l0 18.866142l-7.8110237 0z" fill-rule="evenodd"/><path stroke="#ffffff" stroke-width="1.0" stroke-linejoin="round" stroke-linecap="butt" d="m51.010498 65.47769l7.8110237 0l0 18.866142l-7.8110237 0z" fill-rule="evenodd"/><path fill="#000000" d="m114.419945 50.317585l7.8110275 0l0 15.622051l-7.8110275 0z" fill-rule="evenodd"/><path stroke="#ffffff" stroke-width="1.0" stroke-linejoin="round" stroke-linecap="butt" d="m114.419945 50.317585l7.8110275 0l0 15.622051l-7.8110275 0z" fill-rule="evenodd"/><path fill="#000000" d="m183.84431 74.7769l19.086609 0l0 14.015747l-19.086609 0z" fill-rule="evenodd"/><path stroke="#ffffff" stroke-width="1.0" stroke-linejoin="round" stroke-linecap="butt" d="m183.84431 74.7769l19.086609 0l0 14.015747l-19.086609 0z" fill-rule="evenodd"/></g></svg>